<svg width="28" height="28" viewBox="0 0 28 28" fill="none" xmlns="http://www.w3.org/2000/svg">
<path d="M17.2 10.8C19.8 10.8 21.4 7 21.4 4.6C21.4 2.6 20.4 0.2 18.4 0.2C15.8 0.2 14.2 4 14.2 6.4C14.2 8.4 15.2 10.8 17.2 10.8V10.8ZM9.6 10.8C11.6 10.8 12.6 8.4 12.6 6.4C12.6 3.8 11 0 8.4 0C6.4 0 5.4 2.4 5.4 4.4C5.2 7 6.8 10.8 9.6 10.8V10.8ZM24.4 8.8C21.8 8.8 20 12.4 20 15C20 16.8 20.8 18.6 22.6 18.6C25.2 18.6 27 15 27 12.4C27 10.6 26 8.8 24.4 8.8V8.8ZM7 15C7 12.4 5 8.8 2.6 8.8C0.8 8.8 0 10.6 0 12.4C0 15 2 18.6 4.4 18.6C6.2 18.6 7 16.8 7 15ZM13.4 14.6C9.4 14.6 4 21 4 25.4C4 27.4 5.4 28 7 28C9.4 28 11.2 26.4 13.4 26.4C15.4 26.4 17.2 28 19.4 28C21 28 22.8 27.6 22.8 25.4C22.8 21 17.4 14.6 13.4 14.6V14.6Z" fill="black"/>
</svg>
