<svg width="16" height="15" viewBox="0 0 16 15" fill="none" xmlns="http://www.w3.org/2000/svg">
<path d="M3.98104 3.00687C3.86043 2.89302 3.69888 2.83002 3.53119 2.83144C3.36351 2.83287 3.20311 2.8986 3.08453 3.01448C2.96596 3.13036 2.8987 3.28712 2.89724 3.45099C2.89578 3.61486 2.96024 3.77274 3.07674 3.89062L6.77006 7.49999L3.0761 11.1094C3.01502 11.167 2.9663 11.236 2.93278 11.3122C2.89926 11.3885 2.88162 11.4705 2.88088 11.5535C2.88015 11.6365 2.89633 11.7188 2.92848 11.7956C2.96064 11.8724 3.00813 11.9422 3.06817 12.0009C3.12822 12.0595 3.19963 12.106 3.27822 12.1374C3.35682 12.1688 3.44103 12.1846 3.52595 12.1839C3.61087 12.1832 3.69479 12.1659 3.77281 12.1332C3.85084 12.1004 3.92141 12.0528 3.9804 11.9931L7.67436 8.38374L11.3677 11.9931C11.4883 12.107 11.6498 12.17 11.8175 12.1685C11.9852 12.1671 12.1456 12.1014 12.2642 11.9855C12.3828 11.8696 12.45 11.7129 12.4515 11.549C12.4529 11.3851 12.3885 11.2272 12.272 11.1094L8.57866 7.49999L12.272 3.89062C12.3885 3.77274 12.4529 3.61486 12.4515 3.45099C12.45 3.28712 12.3828 3.13036 12.2642 3.01448C12.1456 2.8986 11.9852 2.83287 11.8175 2.83144C11.6498 2.83002 11.4883 2.89302 11.3677 3.00687L7.67436 6.61624L3.98104 3.00624V3.00687Z" fill="#404040" stroke="#404040"/>
</svg>
