<svg width="19" height="18" viewBox="0 0 19 18" fill="none" xmlns="http://www.w3.org/2000/svg">
<g clip-path="url(#clip0)">
<path d="M18.6382 9.7717C18.397 10 18.1063 10.1141 17.7661 10.1141C17.4259 10.1141 17.1383 10.0029 16.9033 9.78049L16.625 9.51707V16.8751C16.625 17.1795 16.5106 17.4429 16.2817 17.6654C16.0529 17.8878 15.7715 17.999 15.4375 17.999H11.875V12.9415C11.875 12.7893 11.8162 12.6576 11.6987 12.5463C11.5812 12.4351 11.4421 12.3795 11.2812 12.3795H7.71875C7.55794 12.3795 7.41878 12.4351 7.30127 12.5463C7.18376 12.6576 7.125 12.7893 7.125 12.9415V17.999H3.5625C3.22852 17.999 2.9471 17.8878 2.71826 17.6654C2.48942 17.4429 2.375 17.1795 2.375 16.8751V9.51707L2.09668 9.78049C1.86165 10.0029 1.57406 10.1141 1.23389 10.1141C0.893717 10.1141 0.603027 10 0.361816 9.7717C0.120605 9.54341 0 9.26829 0 8.94634C0 8.62439 0.117513 8.35219 0.352539 8.12975L8.59082 0.332679C8.83822 0.0985326 9.14128 -0.0126869 9.5 -0.000979559C9.85872 -0.0126869 10.1618 0.0985326 10.4092 0.332679L18.6475 8.12975C18.8825 8.35219 19 8.62439 19 8.94634C19 9.26829 18.8794 9.54341 18.6382 9.7717Z" fill="black"/>
</g>
<defs>
<clipPath id="clip0">
<rect width="19" height="18"/>
</clipPath>
</defs>
</svg>
