<svg width="10" height="10" viewBox="0 0 10 10" fill="none" xmlns="http://www.w3.org/2000/svg">
<path d="M0.579241 0.000628121H1.83557V1.60685C2.51479 1.07385 3.33589 0.752591 4.19647 0.683148C5.05705 0.613705 5.91904 0.799146 6.67493 1.21635C7.43082 1.63355 8.04717 2.26404 8.4471 3.02921C8.84704 3.79437 9.01287 4.66034 8.92391 5.51913C8.83495 6.37791 8.49514 7.19151 7.94686 7.85845C7.39858 8.52539 6.66608 9.01617 5.84073 9.26958C5.01537 9.52298 4.13368 9.5278 3.3056 9.28343C2.47752 9.03907 1.73971 8.55633 1.18417 7.89543L2.20117 7.15105C2.60438 7.60511 3.13058 7.93256 3.71606 8.09373C4.30153 8.25491 4.92117 8.2429 5.49997 8.05918C6.07876 7.87545 6.59188 7.52787 6.97721 7.05853C7.36253 6.58919 7.60354 6.01821 7.67105 5.41472C7.73856 4.81123 7.62967 4.20111 7.35758 3.65822C7.08548 3.11534 6.66185 2.66297 6.13796 2.3559C5.61407 2.04882 5.01239 1.90019 4.40577 1.92802C3.79916 1.95584 3.21361 2.15892 2.72003 2.51267H4.34761V3.769H0.578613V0L0.579241 0.000628121Z" fill="black"/>
</svg>
