<svg width="21" height="19" viewBox="0 0 21 19" fill="none" xmlns="http://www.w3.org/2000/svg">
<g clip-path="url(#clip0)">
<path d="M21 9.52002C21 11.2427 20.531 12.8324 19.593 14.289C18.655 15.7457 17.381 16.8983 15.771 17.747C14.161 18.5957 12.404 19.02 10.5 19.02C8.596 19.02 6.839 18.5957 5.229 17.747C3.619 16.8983 2.345 15.7457 1.407 14.289C0.469 12.8324 0 11.2427 0 9.52002C0 7.79735 0.469 6.20769 1.407 4.75102C2.345 3.29435 3.619 2.14169 5.229 1.29302C6.839 0.444353 8.596 0.0200195 10.5 0.0200195C12.404 0.0200195 14.161 0.444353 15.771 1.29302C17.381 2.14169 18.655 3.29435 19.593 4.75102C20.531 6.20769 21 7.79735 21 9.52002ZM18.543 9.52002C18.543 7.51869 17.7555 5.80552 16.1805 4.38052C14.6055 2.95552 12.712 2.24302 10.5 2.24302C8.736 2.24302 7.154 2.71169 5.754 3.64902L5.796 3.68702C5.124 4.13035 4.543 4.65602 4.053 5.26402L4.011 5.22602C2.975 6.49269 2.457 7.92402 2.457 9.52002C2.457 11.5214 3.2445 13.2345 4.8195 14.6595C6.3945 16.0845 8.288 16.797 10.5 16.797C12.264 16.797 13.846 16.3284 15.246 15.391L15.204 15.353C15.876 14.9097 16.457 14.384 16.947 13.776L16.989 13.814C18.025 12.5474 18.543 11.116 18.543 9.52002ZM14.28 13.32C14.28 13.6367 14.1575 13.9059 13.9125 14.1275C13.6675 14.3492 13.37 14.46 13.02 14.46C12.656 14.46 12.362 14.346 12.138 14.118L9.618 11.838C9.366 11.61 9.24 11.2174 9.24 10.66V4.58002C9.24 4.26335 9.3625 3.99419 9.6075 3.77252C9.8525 3.55085 10.15 3.44002 10.5 3.44002C10.85 3.44002 11.1475 3.55085 11.3925 3.77252C11.6375 3.99419 11.76 4.26335 11.76 4.58002V10.565L13.902 12.522C14.154 12.7247 14.28 12.9907 14.28 13.32Z" fill="#303030"/>
</g>
<defs>
<clipPath id="clip0">
<rect width="21" height="19" fill="white"/>
</clipPath>
</defs>
</svg>
