<svg width="10" height="10" viewBox="0 0 10 10" fill="none" xmlns="http://www.w3.org/2000/svg">
<path d="M3.09352 7.32902L1.00831 5.24153C0.953785 5.18628 0.888845 5.14241 0.817256 5.11247C0.745668 5.08253 0.668855 5.06712 0.59127 5.06712C0.513685 5.06712 0.436872 5.08253 0.365283 5.11247C0.293695 5.14241 0.228755 5.18628 0.174228 5.24153C0.119036 5.29612 0.0752154 5.36113 0.0453078 5.4328C0.0154002 5.50446 0 5.58136 0 5.65903C0 5.7367 0.0154002 5.8136 0.0453078 5.88526C0.0752154 5.95693 0.119036 6.02194 0.174228 6.07653L2.67052 8.57555C2.90287 8.80815 3.27821 8.80815 3.51056 8.57555L9.82577 2.25941C9.88096 2.20483 9.92478 2.13981 9.95469 2.06815C9.9846 1.99648 10 1.91958 10 1.84191C10 1.76425 9.9846 1.68735 9.95469 1.61568C9.92478 1.54402 9.88096 1.479 9.82577 1.42442C9.77124 1.36917 9.7063 1.3253 9.63472 1.29536C9.56313 1.26542 9.48631 1.25 9.40873 1.25C9.33115 1.25 9.25433 1.26542 9.18274 1.29536C9.11115 1.3253 9.04621 1.36917 8.99169 1.42442L3.09352 7.32902Z" fill="black"/>
</svg>
