<svg width="24" height="24" viewBox="0 0 24 24" fill="none" xmlns="http://www.w3.org/2000/svg">
<path fill-rule="evenodd" clip-rule="evenodd" d="M16 1.75V3H21.25C21.4489 3 21.6397 3.07902 21.7803 3.21967C21.921 3.36032 22 3.55109 22 3.75C22 3.94891 21.921 4.13968 21.7803 4.28033C21.6397 4.42098 21.4489 4.5 21.25 4.5H2.75C2.55109 4.5 2.36032 4.42098 2.21967 4.28033C2.07902 4.13968 2 3.94891 2 3.75C2 3.55109 2.07902 3.36032 2.21967 3.21967C2.36032 3.07902 2.55109 3 2.75 3H8V1.75C8 0.784 8.784 0 9.75 0H14.25C15.216 0 16 0.784 16 1.75ZM9.5 1.75C9.5 1.6837 9.52634 1.62011 9.57322 1.57322C9.62011 1.52634 9.6837 1.5 9.75 1.5H14.25C14.3163 1.5 14.3799 1.52634 14.4268 1.57322C14.4737 1.62011 14.5 1.6837 14.5 1.75V3H9.5V1.75Z" fill="black"/>
<path d="M4.99696 6.17797C4.98841 6.07923 4.96037 5.98317 4.91447 5.89533C4.86858 5.80749 4.80572 5.72962 4.72955 5.66622C4.65337 5.60282 4.56538 5.55514 4.47067 5.52595C4.37596 5.49676 4.2764 5.48663 4.17775 5.49614C4.0791 5.50566 3.98332 5.53463 3.89593 5.58138C3.80854 5.62814 3.73129 5.69175 3.66864 5.76854C3.60598 5.84534 3.55917 5.93378 3.5309 6.02878C3.50264 6.12377 3.49348 6.22342 3.50396 6.32197L4.91596 20.92C4.95819 21.3527 5.15997 21.7541 5.48199 22.0462C5.80401 22.3383 6.22321 22.5 6.65796 22.5H17.342C17.7769 22.5 18.1962 22.3381 18.5182 22.0458C18.8403 21.7536 19.042 21.3518 19.084 20.919L20.497 6.32197C20.5161 6.12386 20.4557 5.92627 20.3291 5.77268C20.2025 5.61908 20.0201 5.52207 19.822 5.50297C19.6238 5.48388 19.4263 5.54427 19.2727 5.67085C19.1191 5.79744 19.0221 5.97986 19.003 6.17797L17.591 20.774C17.585 20.8359 17.5562 20.8933 17.5101 20.9351C17.4641 20.9769 17.4041 21 17.342 21H6.65796C6.59578 21 6.53582 20.9769 6.48978 20.9351C6.44375 20.8933 6.41493 20.8359 6.40896 20.774L4.99696 6.17797Z" fill="black"/>
<path d="M9.20609 7.50106C9.30446 7.49524 9.40301 7.50887 9.49611 7.54115C9.58921 7.57344 9.67503 7.62376 9.74868 7.68923C9.82232 7.75471 9.88234 7.83405 9.92531 7.92273C9.96828 8.01141 9.99335 8.10769 9.99909 8.20606L10.4991 16.7061C10.5108 16.9048 10.443 17.1001 10.3107 17.2489C10.1784 17.3977 9.99237 17.4879 9.79359 17.4996C9.59481 17.5112 9.39953 17.4435 9.25072 17.3111C9.10191 17.1788 9.01176 16.9928 9.00009 16.7941L8.50009 8.29406C8.49427 8.19569 8.50789 8.09714 8.54018 8.00404C8.57247 7.91094 8.62279 7.82511 8.68826 7.75147C8.75373 7.67782 8.83308 7.6178 8.92176 7.57484C9.01044 7.53187 9.10671 7.5068 9.20509 7.50106H9.20609ZM15.4991 8.29406C15.5108 8.09528 15.443 7.90001 15.3107 7.7512C15.1784 7.60239 14.9924 7.51223 14.7936 7.50056C14.5948 7.48889 14.3995 7.55666 14.2507 7.68897C14.1019 7.82128 14.0118 8.00728 14.0001 8.20606L13.5001 16.7061C13.4884 16.9047 13.5561 17.0999 13.6884 17.2486C13.8206 17.3973 14.0064 17.4874 14.2051 17.4991C14.4037 17.5107 14.5989 17.443 14.7476 17.3108C14.8963 17.1786 14.9864 16.9927 14.9981 16.7941L15.4981 8.29406H15.4991Z" fill="black"/>
</svg>
