<svg width="20" height="16" viewBox="0 0 20 16" fill="none" xmlns="http://www.w3.org/2000/svg">
<path d="M6.18704 12.9686L2.01662 8.51527C1.90757 8.3974 1.77769 8.30381 1.63451 8.23994C1.49134 8.17607 1.33771 8.14318 1.18254 8.14318C1.02737 8.14318 0.873744 8.17607 0.730567 8.23994C0.58739 8.30381 0.45751 8.3974 0.348456 8.51527C0.238071 8.63172 0.150431 8.77041 0.0906156 8.9233C0.0308004 9.07619 0 9.24024 0 9.40593C0 9.57163 0.0308004 9.73567 0.0906156 9.88856C0.150431 10.0415 0.238071 10.1801 0.348456 10.2966L5.34104 15.6278C5.80575 16.1241 6.55642 16.1241 7.02113 15.6278L19.6515 2.15341C19.7619 2.03696 19.8496 1.89827 19.9094 1.74538C19.9692 1.59249 20 1.42845 20 1.26275C20 1.09706 19.9692 0.933011 19.9094 0.780122C19.8496 0.627233 19.7619 0.488543 19.6515 0.372092C19.5425 0.25422 19.4126 0.160634 19.2694 0.0967618C19.1263 0.0328893 18.9726 0 18.8175 0C18.6623 0 18.5087 0.0328893 18.3655 0.0967618C18.2223 0.160634 18.0924 0.25422 17.9834 0.372092L6.18704 12.9686Z" fill="white"/>
</svg>
