<svg width="19" height="19" viewBox="0 0 19 19" fill="none" xmlns="http://www.w3.org/2000/svg">
<path d="M0.639423 3.80228H18.372C18.7907 3.80228 19 3.58914 19 3.16286V1.26743C19 0.909655 18.8782 0.608974 18.6346 0.365385C18.391 0.121795 18.0903 0 17.7326 0H1.26743C0.909655 0 0.608974 0.121795 0.365385 0.365385C0.121795 0.608974 0 0.909655 0 1.26743V3.16286C0 3.58914 0.213141 3.80228 0.639423 3.80228ZM3.16286 15.1977H0.639423C0.213141 15.1977 0 15.4109 0 15.8371V17.7326C0 18.0903 0.121795 18.391 0.365385 18.6346C0.608974 18.8782 0.909655 19 1.26743 19H3.16286C3.58914 19 3.80228 18.7869 3.80228 18.3606V15.8371C3.80228 15.4109 3.58914 15.1977 3.16286 15.1977ZM15.8371 15.1977C15.4109 15.1977 15.1977 15.4109 15.1977 15.8371V18.3606C15.1977 18.7869 15.4109 19 15.8371 19H17.7326C18.0903 19 18.391 18.8782 18.6346 18.6346C18.8782 18.391 19 18.0903 19 17.7326V15.8371C19 15.4109 18.7907 15.1977 18.372 15.1977H15.8371ZM10.7674 15.1977C10.3411 15.1977 10.128 15.4109 10.128 15.8371V18.3606C10.128 18.7869 10.3411 19 10.7674 19H13.3023C13.721 19 13.9303 18.7869 13.9303 18.3606V15.8371C13.9303 15.4109 13.721 15.1977 13.3023 15.1977H10.7674ZM5.69772 15.1977C5.27905 15.1977 5.06971 15.4109 5.06971 15.8371V18.3606C5.06971 18.7869 5.27905 19 5.69772 19H8.23257C8.65885 19 8.87199 18.7869 8.87199 18.3606V15.8371C8.87199 15.4109 8.65885 15.1977 8.23257 15.1977H5.69772ZM15.8371 10.128C15.4109 10.128 15.1977 10.3411 15.1977 10.7674V13.3023C15.1977 13.721 15.4109 13.9303 15.8371 13.9303H18.372C18.7907 13.9303 19 13.721 19 13.3023V10.7674C19 10.3411 18.7907 10.128 18.372 10.128H15.8371ZM10.7674 10.128C10.3411 10.128 10.128 10.3411 10.128 10.7674V13.3023C10.128 13.721 10.3411 13.9303 10.7674 13.9303H13.3023C13.721 13.9303 13.9303 13.721 13.9303 13.3023V10.7674C13.9303 10.3411 13.721 10.128 13.3023 10.128H10.7674ZM0.639423 10.128C0.213141 10.128 0 10.3411 0 10.7674V13.3023C0 13.721 0.213141 13.9303 0.639423 13.9303H3.16286C3.58914 13.9303 3.80228 13.721 3.80228 13.3023V10.7674C3.80228 10.3411 3.58914 10.128 3.16286 10.128H0.639423ZM5.69772 10.128C5.27905 10.128 5.06971 10.3411 5.06971 10.7674V13.3023C5.06971 13.721 5.27905 13.9303 5.69772 13.9303H8.23257C8.65885 13.9303 8.87199 13.721 8.87199 13.3023V10.7674C8.87199 10.3411 8.65885 10.128 8.23257 10.128H5.69772ZM15.8371 5.06971C15.4109 5.06971 15.1977 5.27905 15.1977 5.69772V8.23257C15.1977 8.65885 15.4109 8.87199 15.8371 8.87199H18.372C18.7907 8.87199 19 8.65885 19 8.23257V5.69772C19 5.27905 18.7907 5.06971 18.372 5.06971H15.8371ZM10.7674 5.06971C10.3411 5.06971 10.128 5.27905 10.128 5.69772V8.23257C10.128 8.65885 10.3411 8.87199 10.7674 8.87199H13.3023C13.721 8.87199 13.9303 8.65885 13.9303 8.23257V5.69772C13.9303 5.27905 13.721 5.06971 13.3023 5.06971H10.7674ZM0.639423 5.06971C0.213141 5.06971 0 5.27905 0 5.69772V8.23257C0 8.65885 0.213141 8.87199 0.639423 8.87199H3.16286C3.58914 8.87199 3.80228 8.65885 3.80228 8.23257V5.69772C3.80228 5.27905 3.58914 5.06971 3.16286 5.06971H0.639423ZM5.69772 5.06971C5.27905 5.06971 5.06971 5.27905 5.06971 5.69772V8.23257C5.06971 8.65885 5.27905 8.87199 5.69772 8.87199H8.23257C8.65885 8.87199 8.87199 8.65885 8.87199 8.23257V5.69772C8.87199 5.27905 8.65885 5.06971 8.23257 5.06971H5.69772Z" fill="black"/>
</svg>
